HIERARCHY
ROOT Hips
{
	OFFSET -0.116635879194 -21.5893003129 2.71931983479
	CHANNELS 6 Xposition Yposition Zposition Zrotation Yrotation Xrotation
	JOINT LeftHip
	{
		OFFSET 6.8458952325 -8.97561303083 -0.743286585947
		CHANNELS 3 Zrotation Yrotation Xrotation
		JOINT LeftKnee
		{
			OFFSET 3.15842788483 -36.3593499488 -0.596452982176
			CHANNELS 3 Zrotation Yrotation Xrotation
			JOINT LeftFoot
			{
				OFFSET -1.22261624749 -38.3398656664 -4.19091178662
				CHANNELS 3 Zrotation Yrotation Xrotation
				End LeftToe
				{
                                  OFFSET 2.4413630443 -5.43552699865 11.440225602
				}
			}
		}
	}
	JOINT RightHip
	{
		OFFSET -6.62345725422 -8.92701791804 -0.41780972738
		CHANNELS 3 Zrotation Yrotation Xrotation
		JOINT RightKnee
		{
			OFFSET -3.65390745304 -37.0197329088 -0.893884891475
			CHANNELS 3 Zrotation Yrotation Xrotation
			JOINT RightFoot
			{
				OFFSET 1.4664988584 -38.4112333338 -4.01761314749
				CHANNELS 3 Zrotation Yrotation Xrotation
				End RightToe
				{
                                        OFFSET -2.1749583552 -4.64698820492 11.8069641824
				}
			}
		}
	}
	JOINT Waist
	{
		OFFSET -0.244201312142 10.4556093924 -2.27904996527
		CHANNELS 3 Zrotation Yrotation Xrotation
		JOINT Spine
		{
			OFFSET 0.448577903484 12.9552541136 0.0404571316095
			CHANNELS 3 Zrotation Yrotation Xrotation
                        JOINT Chest
                        {
                            OFFSET 0.169070640442 5.04100891855 2.62606518474
                            CHANNELS 3 Zrotation Yrotation Xrotation
                            JOINT Neck
                            {
                                OFFSET -0.240037678202 21.0169062651 -4.91180300911
                                CHANNELS 3 Zrotation Yrotation Xrotation
                                End Head
                                {
                                        OFFSET -0.14657474558 26.2473591028 2.1516429305
                                }
                            }
                            JOINT LeftInnerShoulder
                            {
                                OFFSET 7.50209235503 11.9035463008 -3.75061951448
                                CHANNELS 3 Zrotation Yrotation Xrotation
                                JOINT LeftShoulder
                                {
                                        OFFSET 8.52128008323 2.91386034736 -0.740100903792
                                        CHANNELS 3 Zrotation Yrotation Xrotation
                                        JOINT LeftElbow
                                        {
                                                OFFSET 24.949550822 -1.00338184802 -2.55676821863
                                                CHANNELS 3 Zrotation Yrotation Xrotation
                                                End LeftWrist
                                                {
                                                        OFFSET 23.5138805525 0.799390721056 -0.132514987893
                                                }
                                        }
                                }
                            }
                            JOINT RightInnerShoulder
                            {
                                OFFSET -7.74909314203 11.686720715 -4.17055996659
                                CHANNELS 3 Zrotation Yrotation Xrotation
                                JOINT RightShoulder
                                {
                                        OFFSET -8.94103302285 3.09641088149 -0.895174006403
                                        CHANNELS 3 Zrotation Yrotation Xrotation
                                        JOINT RightElbow
                                        {
                                                OFFSET -24.3388142734 -1.19415663956 -1.86576911322
                                                CHANNELS 3 Zrotation Yrotation Xrotation
                                                End RightWrist
                                                {
                                                        OFFSET -24.3007362109 0.84221309113 -0.502828053951
                                                }
                                        }
                                }
                            }
                        }
                }
            }
}
MOTION
Frames: 8
Frame Time: 0.0333333333333
0.00000 0.00000 0.00000 -12.75183 68.75859 -3.46169 15.24437 -11.46450 -71.67808 -3.24148 1.80809 92.86743 13.40692 12.02943 -11.48959 4.41077 3.23125 -64.78165 -2.72292 -17.46409 84.83974 5.72196 -17.28541 -8.55835 -2.17157 7.72038 47.12702 -2.27275 0.85406 -3.99387 -0.04747 4.02222 5.58896 -12.56993 6.66224 -25.46816 3.51014 -20.30071 -12.28118 -45.71328 -44.95393 3.43395 41.11001 -38.07828 -61.87863 -1.17630 26.67952 -4.60747 59.14807 40.46743 19.00010 -52.02620 44.60563 -53.41187
18.93676 -3.64093 -0.03977 -10.51427 66.03608 -0.86477 20.88713 -7.31582 -82.36571 -7.92525 -0.81994 97.42042 10.53273 5.36565 -8.51293 3.24370 -4.78632 -57.07895 -2.68911 -17.93567 87.77163 7.52210 -22.37743 -7.08512 -0.85841 10.66104 49.30845 -5.93958 0.02193 -5.18191 -0.31568 4.26834 5.10876 -10.66938 1.87965 -27.28036 6.88329 -25.04697 -17.91245 -29.00152 -44.82963 -5.58075 37.81435 -33.27023 -59.60378 -13.34715 33.94993 -12.90157 25.79361 48.39521 -4.30275 -42.04826 39.29918 -54.32444
38.51913 -8.42507 0.01061 -10.81943 64.82398 -0.30537 23.87619 -4.43691 -85.22766 -11.02338 -5.98998 86.00698 3.94756 5.27610 -5.56913 -0.52328 -8.00728 -53.58315 0.05032 -11.63695 91.60661 13.19875 -27.23413 -12.68097 -0.12050 11.83077 50.54306 -7.77955 -0.14372 -5.80489 -1.49285 5.78105 4.70409 -8.77924 -4.27940 -27.56932 12.76748 -31.83206 -23.28164 -13.70249 -44.95064 -14.98753 27.51298 -24.54716 -55.17019 -23.56255 38.33404 -18.79314 -2.63585 41.60259 -28.22526 -35.31642 29.67279 -53.36441
58.56288 -11.75904 0.03036 -8.33609 62.43260 5.27774 28.28150 0.10335 -86.24021 -11.35478 -9.26828 77.67434 -2.50193 6.33257 -2.46957 -1.29317 -9.24697 -52.36086 1.56293 -9.09283 94.70374 16.58661 -28.34339 -11.78137 -3.06446 13.51716 48.88026 -10.21943 -1.00842 -7.21738 -2.63852 6.18149 4.23935 -7.97147 -3.80081 -30.31201 19.54868 -32.35031 -25.61928 -6.00809 -40.30709 -17.79892 18.65297 -22.87892 -47.56075 -32.75646 35.32936 -23.24374 -4.56831 37.16139 -32.40307 -32.98484 25.84552 -52.65097
81.82510 -12.54820 0.08527 -10.39869 65.04234 5.06445 26.88293 0.92965 -84.92069 -11.79370 -8.11134 75.77211 -4.53847 5.64171 -0.62790 -3.11367 -11.63690 -43.30828 3.06791 -6.66994 90.98754 17.17763 -30.64695 -7.60308 -3.31628 12.54104 46.09830 -10.02245 -2.47763 -7.75942 -3.25636 5.02484 4.15267 -3.65834 -9.73287 -28.36761 18.71510 -32.25595 -24.06109 -1.73327 -38.38754 -17.79787 12.08099 -23.46454 -35.62332 -32.83811 34.72060 -25.75028 -12.67429 34.87287 -35.32509 -22.24349 22.54612 -45.44053
109.01395 -7.54789 0.18048 -16.59229 67.05246 2.59431 25.55639 1.67885 -83.55466 -9.99910 -4.46842 80.61581 -3.44576 6.83552 1.01140 -1.35178 -11.49954 -32.47757 4.78270 -4.46269 80.97299 12.93308 -26.93049 -4.93238 -1.92585 11.74825 41.75313 -9.97761 -3.38544 -9.03512 -2.91334 4.99923 4.60815 -2.81702 -22.23327 -24.39229 19.11148 -26.92727 -22.87870 -15.19826 -39.27778 -6.80329 19.67217 -33.50734 -30.26108 -38.16591 31.98826 -28.64301 -15.72579 33.65353 -39.10699 -15.35905 13.32121 -40.80994
136.56715 5.02172 0.20779 -20.79213 64.69863 3.43476 25.23327 1.57357 -77.07727 -9.22075 -3.24404 79.50012 -3.21748 6.10682 -0.74925 -2.97818 -15.50510 -22.24870 4.47656 -6.07643 63.26350 14.32535 -26.68538 -4.14621 -1.87374 12.62954 33.85306 -9.88600 -3.50119 -9.03944 -2.88630 5.53167 5.04126 -2.46757 -22.01100 -24.46560 17.88257 -23.52999 -21.17892 -22.45036 -40.98163 -3.01585 16.50746 -32.51416 -26.59147 -35.08392 32.65020 -26.32029 -10.83167 40.79885 -34.92642 -8.26728 14.03624 -30.57059
163.33646 26.09043 0.26766 -24.69828 63.90368 2.55344 23.40106 -2.27661 -64.33984 -7.92901 -6.07120 68.59112 -3.01870 5.70789 -2.39425 -7.83528 -24.40752 -12.47535 4.84523 -12.44847 43.38773 17.56672 -25.66643 -6.03273 1.41206 14.96448 31.44521 -11.54936 1.09876 -7.41376 -3.20560 9.22842 3.47355 -5.20024 -21.48901 -24.47927 14.62942 -31.84485 -22.46381 -22.07213 -47.43287 -4.39141 9.05569 -23.56268 -22.00152 -28.42944 40.23795 -22.98334 -10.49459 33.22292 -33.13283 -5.93702 9.91135 -28.42491
